<svg width="218" height="66" viewBox="0 0 218 66" fill="none" xmlns="http://www.w3.org/2000/svg">
<g style="mix-blend-mode:hard-light">
<rect x="18" width="182" height="4" rx="1" fill="#111111" fill-opacity="0.95"/>
<rect x="18" y="62" width="182" height="4" rx="1" fill="#111111" fill-opacity="0.95"/>
<rect x="12" y="5" width="6" height="6" rx="1" fill="#111111" fill-opacity="0.95"/>
<rect x="6" y="49" width="6" height="6" rx="1" fill="#111111" fill-opacity="0.95"/>
<path d="M12 57C12 56.4477 12.4477 56 13 56H17C17.5523 56 18 56.4477 18 57V61C18 61.5523 17.5523 62 17 62H13C12.4477 62 12 61.5523 12 61V57Z" fill="#111111" fill-opacity="0.95"/>
<path d="M6 11.5C6 10.9477 6.44772 10.5 7 10.5H11C11.5523 10.5 12 10.9477 12 11.5V15.5C12 16.0523 11.5523 16.5 11 16.5H7C6.44772 16.5 6 16.0523 6 15.5V11.5Z" fill="#111111" fill-opacity="0.95"/>
<rect y="16" width="6" height="34" rx="1" fill="#111111" fill-opacity="0.95"/>
<rect width="6" height="6" rx="1" transform="matrix(-1 0 0 1 206 4)" fill="#111111" fill-opacity="0.95"/>
<rect width="6" height="6" rx="1" transform="matrix(-1 0 0 1 212 50)" fill="#111111" fill-opacity="0.95"/>
<rect width="6" height="6" rx="1" transform="matrix(-1 0 0 1 206 56)" fill="#111111" fill-opacity="0.95"/>
<rect width="6" height="6" rx="1" transform="matrix(-1 0 0 1 212 11)" fill="#111111" fill-opacity="0.95"/>
<rect width="6" height="32" rx="1" transform="matrix(-1 0 0 1 218 17)" fill="#111111" fill-opacity="0.95"/>
</g>
<rect x="12" y="10.2139" width="6" height="45.5714" fill="url(#paint0_linear_289_62)"/>
<rect x="18" y="4" width="182" height="58" fill="url(#paint1_linear_289_62)"/>
<rect x="6" y="16.4287" width="6" height="33.1429" fill="url(#paint2_linear_289_62)"/>
<rect width="6" height="45.5714" transform="matrix(-1 0 0 1 206 10.2139)" fill="url(#paint3_linear_289_62)"/>
<rect width="6" height="33.1429" transform="matrix(-1 0 0 1 212 16.4287)" fill="url(#paint4_linear_289_62)"/>
<path d="M30.7888 40.264V38.284H28.7868V28.12H30.7888V26.118H36.9928V28.12H39.0168V32.3H36.7728V28.34H31.0088V38.064H36.7728V36.282H34.7928V34.28H32.7688V32.102H35.0128V34.06H39.0168V38.284H36.9928V40.264H30.7888ZM41.6774 40.264V28.12H43.6794V26.118H49.8834V28.12H51.9074V34.28H49.8834V36.282H48.9154V38.064H50.8954V40.264H48.6954V38.284H46.6714V36.282H43.8994V40.264H41.6774ZM43.8994 34.06H49.6634V28.34H43.8994V34.06ZM54.568 40.264V30.1H56.57V28.12H58.55V26.118H60.794V28.12H62.774V30.1H64.798V40.264H62.554V36.282H56.79V40.264H54.568ZM56.79 34.06H62.554V30.32H60.574V28.34H58.77V30.32H56.79V34.06ZM69.4607 40.264V38.284H67.4587V28.12H69.4607V26.118H75.6647V28.12H77.6887V32.3H75.6647V34.06H77.6887V38.284H75.6647V40.264H69.4607ZM69.6807 38.064H75.4447V34.28H71.4407V32.102H75.4447V28.34H69.6807V38.064ZM88.7356 40.264V32.3H86.7556V30.32H84.7536V26.118H86.9756V30.1H88.9556V32.102H90.7596V30.1H92.7396V26.118H94.9836V30.32H92.9596V32.3H90.9796V40.264H88.7356ZM99.2165 40.264V38.284H97.2145V28.12H99.2165V26.118H105.421V28.12H107.445V38.284H105.421V40.264H99.2165ZM99.4365 38.064H105.201V28.34H99.4365V38.064ZM112.107 40.264V38.284H110.105V26.118H112.327V38.064H118.091V26.118H120.335V38.284H118.311V40.264H112.107ZM122.996 40.264V28.12H124.998V26.118H131.202V28.12H133.226V34.28H131.202V36.282H130.234V38.064H132.214V40.264H130.014V38.284H127.99V36.282H125.218V40.264H122.996ZM125.218 34.06H130.982V28.34H125.218V34.06ZM140.291 40.264V26.118H142.513V32.102H144.273V30.1H146.517V32.102H148.277V26.118H150.521V40.264H148.277V34.28H142.513V40.264H140.291ZM155.183 40.264V38.284H153.181V28.12H155.183V26.118H161.387V28.12H163.411V30.32H161.167V28.34H155.403V32.102H159.407V34.28H155.403V38.064H161.167V36.062H163.411V38.284H161.387V40.264H155.183ZM166.072 40.264V28.12H168.074V26.118H174.278V28.12H176.302V34.28H174.278V36.282H173.31V38.064H175.29V40.264H173.09V38.284H171.066V36.282H168.294V40.264H166.072ZM168.294 34.06H174.058V28.34H168.294V34.06ZM180.965 40.264V38.284H178.963V28.12H180.965V26.118H187.169V28.12H189.193V38.284H187.169V40.264H180.965ZM181.185 38.064H186.949V28.34H181.185V38.064Z" fill="white"/>
<defs>
<linearGradient id="paint0_linear_289_62" x1="14.9993" y1="10.2139" x2="16.0897" y2="55.7592" gradientUnits="userSpaceOnUse">
<stop stop-color="#D9D9D9"/>
<stop offset="1" stop-color="#228B86"/>
</linearGradient>
<linearGradient id="paint1_linear_289_62" x1="108.979" y1="4" x2="109.037" y2="62" gradientUnits="userSpaceOnUse">
<stop stop-color="#D9D9D9"/>
<stop offset="1" stop-color="#228B86"/>
</linearGradient>
<linearGradient id="paint2_linear_289_62" x1="8.9993" y1="16.4287" x2="9.5762" y2="49.5615" gradientUnits="userSpaceOnUse">
<stop stop-color="#D9D9D9"/>
<stop offset="1" stop-color="#228B86"/>
</linearGradient>
<linearGradient id="paint3_linear_289_62" x1="2.9993" y1="6.02351e-08" x2="4.08972" y2="45.5454" gradientUnits="userSpaceOnUse">
<stop stop-color="#D9D9D9"/>
<stop offset="1" stop-color="#228B86"/>
</linearGradient>
<linearGradient id="paint4_linear_289_62" x1="2.9993" y1="4.38073e-08" x2="3.5762" y2="33.1328" gradientUnits="userSpaceOnUse">
<stop stop-color="#D9D9D9"/>
<stop offset="1" stop-color="#228B86"/>
</linearGradient>
</defs>
</svg>
